<?xml version="1.0" encoding="UTF-8"?>
<svg width="3980px" height="1227px" viewBox="0 0 3980 1227" version="1.1" xmlns="http://www.w3.org/2000/svg" xmlns:xlink="http://www.w3.org/1999/xlink">
    <!-- Generator: Sketch 42 (36781) - http://www.bohemiancoding.com/sketch -->
    <title>Artboard 2 Copy 4</title>
    <desc>Created with Sketch.</desc>
    <defs>
        <rect id="path-1" x="0.0757004508" y="44.3551579" width="5736.28182" height="437.074852"></rect>
        <mask id="mask-2" maskContentUnits="userSpaceOnUse" maskUnits="objectBoundingBox" x="0" y="0" width="5736.28182" height="437.074852" fill="white">
            <use xlink:href="#path-1"></use>
        </mask>
    </defs>
    <g id="Page-1" stroke="none" stroke-width="1" fill="none" fill-rule="evenodd">
        <g id="Artboard-2-Copy-4">
            <g id="Group" transform="translate(-374.000000, 772.000000)">
                <g id="Group-12" transform="translate(484.830217, 112.537631)"></g>
                <g id="Group-8">
                    <use id="Rectangle-12" stroke="#979797" mask="url(#mask-2)" stroke-width="10.0800002" fill="#2E86A6" xlink:href="#path-1"></use>
                    <g id="Building2" transform="translate(576.035901, 0.391941)" fill="#003B50">
                        <rect id="Rectangle-11" x="2.08497843" y="2.63564611" width="16.7768032" height="88.3772805"></rect>
                        <rect id="Rectangle-11" x="132.105203" y="2.63564611" width="16.7768032" height="88.3772805"></rect>
                    </g>
                    <g id="Building2" transform="translate(753.646971, 3.062077)" fill="#003B50">
                        <rect id="Rectangle-11" x="1.97285057" y="1.95821041" width="16.768178" height="88.3727068"></rect>
                        <rect id="Rectangle-11" x="131.92623" y="1.95821041" width="16.768178" height="88.3727068"></rect>
                    </g>
                    <path d="M1435.84334,308.26341 L1435.84334,492.96875 L1716.1755,492.96875 L1716.1755,308.26341 C1716.1755,230.862749 1653.42101,168.105575 1576.00942,168.105575 C1498.60262,168.105575 1435.84334,230.856375 1435.84334,308.26341 Z M5629.26562,190.859406 C5607.2512,176.470658 5580.94246,168.105575 5552.68004,168.105575 C5475.27324,168.105575 5412.51396,230.856375 5412.51396,308.26341 L5412.51396,492.96875 L5520.88979,492.96875 L187.353725,492.96875 L187.353725,8.8589206 L5629.26562,8.8589206 L5629.26562,190.859406 Z M441.675683,308.26341 L441.675683,492.96875 L722.007842,492.96875 L722.007842,308.26341 C722.007842,230.862749 659.253351,168.105575 581.841763,168.105575 C504.434963,168.105575 441.675683,230.856375 441.675683,308.26341 Z M938.759511,308.26341 L938.759511,492.96875 L1219.09167,492.96875 L1219.09167,308.26341 C1219.09167,230.862749 1156.33718,168.105575 1078.92559,168.105575 C1001.51879,168.105575 938.759511,230.856375 938.759511,308.26341 Z M1932.92717,308.26341 L1932.92717,492.96875 L2213.25932,492.96875 L2213.25932,308.26341 C2213.25932,230.862749 2150.50483,168.105575 2073.09324,168.105575 C1995.68644,168.105575 1932.92717,230.856375 1932.92717,308.26341 Z M2430.01099,308.26341 L2430.01099,492.96875 L2710.34315,492.96875 L2710.34315,308.26341 C2710.34315,230.862749 2647.58866,168.105575 2570.17707,168.105575 C2492.77027,168.105575 2430.01099,230.856375 2430.01099,308.26341 Z M2927.09482,308.26341 L2927.09482,492.96875 L3207.42698,492.96875 L3207.42698,308.26341 C3207.42698,230.862749 3144.67249,168.105575 3067.2609,168.105575 C2989.8541,168.105575 2927.09482,230.856375 2927.09482,308.26341 Z M3424.17865,308.26341 L3424.17865,492.96875 L3704.51081,492.96875 L3704.51081,308.26341 C3704.51081,230.862749 3641.75631,168.105575 3564.34473,168.105575 C3486.93793,168.105575 3424.17865,230.856375 3424.17865,308.26341 Z M3921.26247,308.26341 L3921.26247,492.96875 L4201.59463,492.96875 L4201.59463,308.26341 C4201.59463,230.862749 4138.84014,168.105575 4061.42855,168.105575 C3984.02175,168.105575 3921.26247,230.856375 3921.26247,308.26341 Z M4418.3463,308.26341 L4418.3463,492.96875 L4698.67846,492.96875 L4698.67846,308.26341 C4698.67846,230.862749 4635.92397,168.105575 4558.51238,168.105575 C4481.10558,168.105575 4418.3463,230.856375 4418.3463,308.26341 Z M4915.43013,308.26341 L4915.43013,492.96875 L5195.76229,492.96875 L5195.76229,308.26341 C5195.76229,230.862749 5133.0078,168.105575 5055.59621,168.105575 C4978.18941,168.105575 4915.43013,230.856375 4915.43013,308.26341 Z" id="Combined-Shape" fill="#202D43"></path>
                    <path d="M1371.48961,300.473137 L1371.48961,485.178477 L1651.82177,485.178477 L1651.82177,300.473137 C1651.82177,223.072476 1589.06728,160.315302 1511.65569,160.315302 C1434.24889,160.315302 1371.48961,223.066102 1371.48961,300.473137 Z M5564.9119,183.069133 C5542.89747,168.680385 5516.58873,160.315302 5488.32631,160.315302 C5410.91951,160.315302 5348.16023,223.066102 5348.16023,300.473137 L5348.16023,485.178477 L5456.53607,485.178477 L123,485.178477 L123,1.06864748 L5564.9119,1.06864748 L5564.9119,183.069133 Z M377.321958,300.473137 L377.321958,485.178477 L657.654117,485.178477 L657.654117,300.473137 C657.654117,223.072476 594.899625,160.315302 517.488037,160.315302 C440.081237,160.315302 377.321958,223.066102 377.321958,300.473137 Z M874.405785,300.473137 L874.405785,485.178477 L1154.73794,485.178477 L1154.73794,300.473137 C1154.73794,223.072476 1091.98345,160.315302 1014.57186,160.315302 C937.165065,160.315302 874.405785,223.066102 874.405785,300.473137 Z M1868.57344,300.473137 L1868.57344,485.178477 L2148.9056,485.178477 L2148.9056,300.473137 C2148.9056,223.072476 2086.15111,160.315302 2008.73952,160.315302 C1931.33272,160.315302 1868.57344,223.066102 1868.57344,300.473137 Z M2365.65727,300.473137 L2365.65727,485.178477 L2645.98943,485.178477 L2645.98943,300.473137 C2645.98943,223.072476 2583.23493,160.315302 2505.82335,160.315302 C2428.41655,160.315302 2365.65727,223.066102 2365.65727,300.473137 Z M2862.74109,300.473137 L2862.74109,485.178477 L3143.07325,485.178477 L3143.07325,300.473137 C3143.07325,223.072476 3080.31876,160.315302 3002.90717,160.315302 C2925.50037,160.315302 2862.74109,223.066102 2862.74109,300.473137 Z M3359.82492,300.473137 L3359.82492,485.178477 L3640.15708,485.178477 L3640.15708,300.473137 C3640.15708,223.072476 3577.40259,160.315302 3499.991,160.315302 C3422.5842,160.315302 3359.82492,223.066102 3359.82492,300.473137 Z M3856.90875,300.473137 L3856.90875,485.178477 L4137.24091,485.178477 L4137.24091,300.473137 C4137.24091,223.072476 4074.48642,160.315302 3997.07483,160.315302 C3919.66803,160.315302 3856.90875,223.066102 3856.90875,300.473137 Z M4353.99258,300.473137 L4353.99258,485.178477 L4634.32473,485.178477 L4634.32473,300.473137 C4634.32473,223.072476 4571.57024,160.315302 4494.15866,160.315302 C4416.75186,160.315302 4353.99258,223.066102 4353.99258,300.473137 Z M4851.0764,300.473137 L4851.0764,485.178477 L5131.40856,485.178477 L5131.40856,300.473137 C5131.40856,223.072476 5068.65407,160.315302 4991.24248,160.315302 C4913.83568,160.315302 4851.0764,223.066102 4851.0764,300.473137 Z" id="Combined-Shape" fill="#46BDE8"></path>
                </g>
            </g>
        </g>
    </g>
</svg>