<?xml version="1.0" encoding="UTF-8"?>
<svg width="3980px" height="1227px" viewBox="0 0 3980 1227" version="1.1" xmlns="http://www.w3.org/2000/svg" xmlns:xlink="http://www.w3.org/1999/xlink">
    <!-- Generator: Sketch 42 (36781) - http://www.bohemiancoding.com/sketch -->
    <title>Artboard 2 Copy 2</title>
    <desc>Created with Sketch.</desc>
    <defs></defs>
    <g id="Page-1" stroke="none" stroke-width="1" fill="none" fill-rule="evenodd">
        <g id="Artboard-2-Copy-2">
            <g id="Group" transform="translate(-2.000000, 717.000000)">
                <g id="Group-12" transform="translate(141.234182, 395.526682)"></g>
                <g id="Group-8" transform="translate(0.000000, 0.064995)" fill="#0D4C63">
                    <polygon id="Combined-Shape" points="3081.12428 227.402574 3151.176 95.3826087 3212.41438 232.505626"></polygon>
                    <path d="M880.193913,368.432788 L860.472089,405.59805 L969.959536,409.853364 L918.89069,295.509724 L881.244186,366.453576 L831.093476,254.165651 L786.649197,337.919734 L743.296263,240.852096 L684.877662,350.940422 L777.822822,354.552808 L772.674876,364.253978 L880.193913,368.432788 Z M465.384628,283.167787 L523.803229,173.07946 L574.872076,287.423101 L465.384628,283.167787 Z M2045.73447,110.095323 L2104.15307,0.00699668005 L2155.22192,114.350637 L2045.73447,110.095323 Z M1914.03865,139.966425 L1972.45725,29.8780982 L2023.5261,144.221739 L1914.03865,139.966425 Z" id="Combined-Shape"></path>
                </g>
            </g>
            <path d="M-0.75987641,1293.86358 C-0.75987641,1293.86358 208.883244,921.715797 523.772895,968.235559 C838.662546,1014.75532 802.001042,1158.01516 1304.11845,1052.66795 C1806.23586,947.320736 1976.31257,657.28605 2343.61729,895.533613 C2710.922,1133.78118 2944.35777,985.24367 2944.35777,985.24367 C2944.35777,985.24367 3725.55304,619.726772 3924.68671,1263.74664 C4123.82039,1907.76651 -0.75987641,1293.86358 -0.75987641,1293.86358 Z" id="Path-2" fill="#0D4C63"></path>
            <path d="M162.936437,1300.76093 C162.936437,1300.76093 363.588242,1003.14141 664.972692,1040.34488 C966.357141,1077.54835 931.268001,1192.11822 1411.85026,1107.8684 C1892.43252,1023.61857 2055.21486,791.667757 2406.76636,982.202611 C2758.31786,1172.73747 2981.74188,1053.94686 2981.74188,1053.94686 C2981.74188,1053.94686 3729.43272,761.630297 3920.02581,1276.67536 C4110.6189,1791.72043 162.936437,1300.76093 162.936437,1300.76093 Z" id="Path-2" fill="#1A6681"></path>
        </g>
    </g>
</svg>