<?xml version="1.0" encoding="UTF-8"?>
<svg width="1920px" height="1080px" viewBox="0 0 1920 1080" version="1.1" xmlns="http://www.w3.org/2000/svg" xmlns:xlink="http://www.w3.org/1999/xlink">
    <!-- Generator: Sketch 42 (36781) - http://www.bohemiancoding.com/sketch -->
    <title>Artboard Copy 2</title>
    <desc>Created with Sketch.</desc>
    <defs>
        <rect id="path-1" x="1" y="0" width="1934" height="1091"></rect>
    </defs>
    <g id="Page-1" stroke="none" stroke-width="1" fill="none" fill-rule="evenodd">
        <g id="Artboard-Copy-2">
            <g id="Group" transform="translate(-1.000000, -11.000000)">
                <mask id="mask-2" fill="white">
                    <use xlink:href="#path-1"></use>
                </mask>
                <use id="Rectangle-5" fill="#00EAC8" xlink:href="#path-1"></use>
                <g id="Group-12" mask="url(#mask-2)">
                    <g transform="translate(68.000000, 985.000000)"></g>
                </g>
            </g>
            <path d="M1785.5727,206 C1787.87447,206 1789.79261,205.222615 1791.32712,203.279152 C1792.86163,201.724382 1793.24526,199.392226 1792.86163,197.060071 C1792.86163,196.671378 1785.18907,158.579505 1738.77006,155.081272 C1735.3174,122.042403 1707.31254,96 1673.93689,96 C1643.63026,96 1618.3108,116.989399 1610.63823,145.363958 C1603.73293,139.922261 1592.99134,134.480565 1578.41346,134.480565 C1546.57232,134.869258 1536.21436,162.466431 1535.83073,163.632509 C1534.29622,167.519435 1536.21436,171.795053 1540.05064,172.961131 C1543.88693,174.515901 1548.10684,172.572438 1549.25772,168.685512 C1549.64135,167.908127 1556.93029,149.250883 1578.41346,148.862191 C1601.04753,148.862191 1609.10372,164.798587 1609.10372,165.187279 C1610.63823,168.29682 1614.09089,169.85159 1617.15991,169.074205 C1620.61257,168.29682 1622.91434,165.187279 1622.91434,162.077739 C1622.91434,133.70318 1645.5484,110.381625 1673.93689,110.381625 C1701.94175,110.381625 1724.95944,133.314488 1724.95944,162.077739 C1724.95944,165.964664 1728.02847,169.462898 1732.24838,169.462898 C1758.71872,169.462898 1770.22757,181.90106 1775.59836,190.840989 L1461.40686,190.840989 C1457.57058,190.840989 1454.11793,193.95053 1454.11793,198.226148 C1453.35067,202.501767 1456.41969,206 1460.63961,206 L1785.5727,206 Z" id="Shape" fill="#FFFFFF" opacity="0.340000004"></path>
            <path d="M473.06254,379 C474.902597,379 476.435978,378.378092 477.662683,376.823322 C478.889388,375.579505 479.196064,373.713781 478.889388,371.848057 C478.889388,371.537102 472.755863,341.063604 435.648039,338.265018 C432.887953,311.833922 410.500587,291 383.819755,291 C359.592332,291 339.3517,307.791519 333.218176,330.491166 C327.698003,326.137809 319.111069,321.784452 307.457372,321.784452 C282.003244,322.095406 273.722986,344.173145 273.416309,345.106007 C272.189604,348.215548 273.722986,351.636042 276.789748,352.568905 C279.85651,353.812721 283.229949,352.257951 284.149978,349.14841 C284.456654,348.526502 290.283502,333.600707 307.457372,333.289753 C325.55127,333.289753 331.991471,346.038869 331.991471,346.349823 C333.218176,348.837456 335.978262,350.081272 338.431672,349.459364 C341.191758,348.837456 343.031815,346.349823 343.031815,343.862191 C343.031815,321.162544 361.125713,302.5053 383.819755,302.5053 C406.20712,302.5053 424.607694,320.85159 424.607694,343.862191 C424.607694,346.971731 427.061104,349.770318 430.434543,349.770318 C451.595203,349.770318 460.79549,359.720848 465.088957,366.872792 L213.921119,366.872792 C210.854357,366.872792 208.094271,369.360424 208.094271,372.780919 C207.480918,376.201413 209.934328,379 213.307767,379 L473.06254,379 Z" id="Shape" fill="#FFFFFF" opacity="0.340000004"></path>
            <path d="M333.275394,568 C334.429673,568 335.391573,567.611307 336.161093,566.639576 C336.930612,565.862191 337.122992,564.696113 336.930612,563.530035 C336.930612,563.335689 333.083014,544.289753 309.805043,542.540636 C308.073623,526.021201 294.029889,513 277.292835,513 C262.094821,513 249.397746,523.4947 245.550147,537.681979 C242.087308,534.961131 236.70067,532.240283 229.390233,532.240283 C213.422699,532.434629 208.228441,546.233216 208.036061,546.816254 C207.266542,548.759717 208.228441,550.897527 210.15224,551.480565 C212.07604,552.257951 214.192219,551.286219 214.769359,549.342756 C214.961739,548.954064 218.616957,539.625442 229.390233,539.431095 C240.740649,539.431095 244.780627,547.399293 244.780627,547.59364 C245.550147,549.14841 247.281566,549.925795 248.820606,549.537102 C250.552025,549.14841 251.706305,547.59364 251.706305,546.038869 C251.706305,531.85159 263.05672,520.190813 277.292835,520.190813 C291.33657,520.190813 302.879365,531.657244 302.879365,546.038869 C302.879365,547.982332 304.418405,549.731449 306.534584,549.731449 C319.808799,549.731449 325.580197,555.95053 328.273516,560.420495 L170.714355,560.420495 C168.790556,560.420495 167.059137,561.975265 167.059137,564.113074 C166.674377,566.250883 168.213416,568 170.329595,568 L333.275394,568 Z" id="Shape" fill="#FFFFFF" opacity="0.340000004"></path>
        </g>
    </g>
</svg>