<?xml version="1.0" encoding="UTF-8"?>
<svg width="22px" height="19px" viewBox="0 0 22 19" version="1.1" xmlns="http://www.w3.org/2000/svg" xmlns:xlink="http://www.w3.org/1999/xlink">
    <!-- Generator: Sketch 42 (36781) - http://www.bohemiancoding.com/sketch -->
    <title>shape</title>
    <desc>Created with Sketch.</desc>
    <defs></defs>
    <g id="Final" stroke="none" stroke-width="1" fill="none" fill-rule="evenodd">
        <g id="icons" transform="translate(-208.000000, -1286.000000)" fill="#000000">
            <g id="ic_twitter" transform="translate(207.000000, 1283.000000)">
                <g id="twitter" transform="translate(1.000000, 3.000000)">
                    <g id="social/twitter">
                        <path d="M19.7465474,4.49196023 C19.7554861,4.68589024 19.7599555,4.88433025 19.7599555,5.07826026 C19.7599555,11.1000126 15.2190809,18.0400009 6.91857666,18.0400009 C4.36925099,18.0400009 1.99780605,17.2859289 0,15.9924608 C0.353973689,16.0348548 0.712416743,16.0556008 1.07622304,16.0556008 C3.19202031,16.0556008 5.13798173,15.3276868 6.68080645,14.1072807 C4.70713497,14.0712007 3.03916804,12.7542806 2.4653016,10.9457706 C2.74061447,10.9971846 3.0239722,11.0251466 3.31448091,11.0251466 C3.72566247,11.0251466 4.12611755,10.9710266 4.50333194,10.8672966 C2.43937929,10.4469645 0.88404035,8.60778644 0.88404035,6.39969032 L0.88404035,6.34286432 C1.49187396,6.68382034 2.18909486,6.88947635 2.92922167,6.91383035 C1.7153422,6.09571631 0.919795269,4.70393024 0.919795269,3.12092016 C0.919795269,2.28747212 1.14058189,1.50453608 1.5303105,0.831644042 C3.75605415,3.58815618 7.08304928,5.40027427 10.8328463,5.59240028 C10.757761,5.25685627 10.7184306,4.91048825 10.7184306,4.55239423 C10.7184306,2.0385201 12.7385835,0 15.2307012,0 C16.5294986,0 17.70226,0.550220028 18.5255169,1.43688607 C19.5534708,1.23213206 20.5188536,0.853292043 21.3921675,0.331936017 C21.0542835,1.39449207 20.3373974,2.28747212 19.4077696,2.85122214 C20.31952,2.74117814 21.1883645,2.49944213 22.0000011,2.13503411 C21.3939553,3.04966215 20.6288,3.8506382 19.7474413,4.49196023 L19.7465474,4.49196023 Z" id="Shape"></path>
                    </g>
                </g>
            </g>
        </g>
    </g>
</svg>